<mxfile host="Electron" agent="Mozilla/5.0 (Windows NT 10.0; Win64; x64) AppleWebKit/537.36 (KHTML, like Gecko) draw.io/26.0.16 Chrome/132.0.6834.196 Electron/34.2.0 Safari/537.36" version="26.0.16" pages="2">
  <diagram name="Page-1" id="UuBap9JZJYmlTuPfFlsr">
    <mxGraphModel dx="1302" dy="764" grid="1" gridSize="10" guides="1" tooltips="1" connect="1" arrows="1" fold="1" page="1" pageScale="1" pageWidth="1169" pageHeight="827" math="0" shadow="0">
      <root>
        <mxCell id="0" />
        <mxCell id="1" parent="0" />
        <mxCell id="GCR8OcFuS2CfD__5mVzH-2" value="Communications Plan" style="text;html=1;align=center;verticalAlign=middle;whiteSpace=wrap;rounded=0;fontStyle=1;fontSize=18;" vertex="1" parent="1">
          <mxGeometry x="485" y="10" width="200" height="30" as="geometry" />
        </mxCell>
        <mxCell id="GCR8OcFuS2CfD__5mVzH-6" value="Boxes" parent="0" />
        <mxCell id="GCR8OcFuS2CfD__5mVzH-1" value="&lt;b&gt;&lt;font style=&quot;font-size: 14px;&quot;&gt;Server&lt;/font&gt;&lt;/b&gt;" style="rounded=0;whiteSpace=wrap;html=1;verticalAlign=top;" vertex="1" parent="GCR8OcFuS2CfD__5mVzH-6">
          <mxGeometry x="840" y="90" width="240" height="540" as="geometry" />
        </mxCell>
        <mxCell id="GCR8OcFuS2CfD__5mVzH-3" value="&lt;b&gt;&lt;font style=&quot;font-size: 14px;&quot;&gt;App&lt;/font&gt;&lt;/b&gt;" style="rounded=0;whiteSpace=wrap;html=1;verticalAlign=top;" vertex="1" parent="GCR8OcFuS2CfD__5mVzH-6">
          <mxGeometry x="40" y="90" width="720" height="540" as="geometry" />
        </mxCell>
        <mxCell id="GCR8OcFuS2CfD__5mVzH-4" value="&lt;b&gt;&lt;font style=&quot;font-size: 14px;&quot;&gt;Universe State&lt;/font&gt;&lt;/b&gt;" style="rounded=0;whiteSpace=wrap;html=1;verticalAlign=middle;" vertex="1" parent="GCR8OcFuS2CfD__5mVzH-6">
          <mxGeometry x="870" y="310" width="180" height="100" as="geometry" />
        </mxCell>
        <mxCell id="GCR8OcFuS2CfD__5mVzH-5" value="&lt;b&gt;&lt;font style=&quot;font-size: 14px;&quot;&gt;Ship&lt;/font&gt;&lt;/b&gt;" style="rounded=0;whiteSpace=wrap;html=1;verticalAlign=top;" vertex="1" parent="GCR8OcFuS2CfD__5mVzH-6">
          <mxGeometry x="77.5" y="125" width="602.5" height="470" as="geometry" />
        </mxCell>
        <mxCell id="GCR8OcFuS2CfD__5mVzH-11" value="" style="group" vertex="1" connectable="0" parent="GCR8OcFuS2CfD__5mVzH-6">
          <mxGeometry x="110" y="170" width="150" height="380" as="geometry" />
        </mxCell>
        <mxCell id="GCR8OcFuS2CfD__5mVzH-8" value="&lt;b&gt;&lt;font style=&quot;font-size: 13px;&quot;&gt;Bridge&lt;/font&gt;&lt;/b&gt;" style="rounded=0;whiteSpace=wrap;html=1;verticalAlign=top;" vertex="1" parent="GCR8OcFuS2CfD__5mVzH-11">
          <mxGeometry width="150" height="380" as="geometry" />
        </mxCell>
        <mxCell id="GCR8OcFuS2CfD__5mVzH-7" value="Tactical Bridge Station" style="rounded=0;whiteSpace=wrap;html=1;" vertex="1" parent="GCR8OcFuS2CfD__5mVzH-11">
          <mxGeometry x="22.5" y="45" width="105" height="60" as="geometry" />
        </mxCell>
        <mxCell id="GCR8OcFuS2CfD__5mVzH-9" value="Conn Bridge Station" style="rounded=0;whiteSpace=wrap;html=1;" vertex="1" parent="GCR8OcFuS2CfD__5mVzH-11">
          <mxGeometry x="22.5" y="125" width="105" height="60" as="geometry" />
        </mxCell>
        <mxCell id="GCR8OcFuS2CfD__5mVzH-13" value="&lt;b&gt;&lt;font style=&quot;font-size: 13px;&quot;&gt;Systems&lt;/font&gt;&lt;/b&gt;" style="rounded=0;whiteSpace=wrap;html=1;verticalAlign=top;" vertex="1" parent="GCR8OcFuS2CfD__5mVzH-6">
          <mxGeometry x="340" y="170" width="150" height="380" as="geometry" />
        </mxCell>
        <mxCell id="GCR8OcFuS2CfD__5mVzH-14" value="Tactical Bridge Station" style="rounded=0;whiteSpace=wrap;html=1;" vertex="1" parent="GCR8OcFuS2CfD__5mVzH-6">
          <mxGeometry x="362.5" y="215" width="105" height="60" as="geometry" />
        </mxCell>
        <mxCell id="GCR8OcFuS2CfD__5mVzH-15" value="Conn Bridge Station" style="rounded=0;whiteSpace=wrap;html=1;" vertex="1" parent="GCR8OcFuS2CfD__5mVzH-6">
          <mxGeometry x="362.5" y="295" width="105" height="60" as="geometry" />
        </mxCell>
      </root>
    </mxGraphModel>
  </diagram>
  <diagram id="Mvd7tWeQQYVAPnTi9lE5" name="Page-2">
    <mxGraphModel dx="1358" dy="797" grid="1" gridSize="10" guides="1" tooltips="1" connect="1" arrows="1" fold="1" page="1" pageScale="1" pageWidth="1169" pageHeight="827" math="0" shadow="0">
      <root>
        <mxCell id="0" />
        <mxCell id="1" parent="0" />
        <mxCell id="je1X-gYXeFDkLmiAkzNs-1" value="&lt;b&gt;&lt;font style=&quot;font-size: 14px;&quot;&gt;Server&lt;/font&gt;&lt;/b&gt;" style="rounded=0;whiteSpace=wrap;html=1;verticalAlign=top;" vertex="1" parent="1">
          <mxGeometry x="360" y="100" width="780" height="670" as="geometry" />
        </mxCell>
        <mxCell id="je1X-gYXeFDkLmiAkzNs-3" value="&lt;b&gt;&lt;font style=&quot;font-size: 14px;&quot;&gt;Universe State&lt;/font&gt;&lt;/b&gt;" style="rounded=0;whiteSpace=wrap;html=1;verticalAlign=top;" vertex="1" parent="1">
          <mxGeometry x="540" y="154" width="570" height="586" as="geometry" />
        </mxCell>
        <mxCell id="je1X-gYXeFDkLmiAkzNs-4" value="&lt;b&gt;&lt;font style=&quot;font-size: 14px;&quot;&gt;Ship&lt;/font&gt;&lt;/b&gt;" style="rounded=0;whiteSpace=wrap;html=1;verticalAlign=top;" vertex="1" parent="1">
          <mxGeometry x="680" y="210" width="410" height="480" as="geometry" />
        </mxCell>
        <mxCell id="je1X-gYXeFDkLmiAkzNs-9" value="&lt;b&gt;&lt;font style=&quot;font-size: 13px;&quot;&gt;Systems&lt;/font&gt;&lt;/b&gt;" style="rounded=0;whiteSpace=wrap;html=1;verticalAlign=top;" vertex="1" parent="1">
          <mxGeometry x="700" y="262" width="370" height="198" as="geometry" />
        </mxCell>
        <mxCell id="je1X-gYXeFDkLmiAkzNs-10" value="Tactical" style="rounded=0;whiteSpace=wrap;html=1;" vertex="1" parent="1">
          <mxGeometry x="720" y="300" width="100" height="60" as="geometry" />
        </mxCell>
        <mxCell id="je1X-gYXeFDkLmiAkzNs-11" value="Structure" style="rounded=0;whiteSpace=wrap;html=1;" vertex="1" parent="1">
          <mxGeometry x="835" y="300" width="100" height="60" as="geometry" />
        </mxCell>
        <mxCell id="je1X-gYXeFDkLmiAkzNs-12" value="Engineering" style="rounded=0;whiteSpace=wrap;html=1;" vertex="1" parent="1">
          <mxGeometry x="950" y="300" width="100" height="60" as="geometry" />
        </mxCell>
        <mxCell id="je1X-gYXeFDkLmiAkzNs-14" value="Propulsion" style="rounded=0;whiteSpace=wrap;html=1;" vertex="1" parent="1">
          <mxGeometry x="835" y="384" width="100" height="60" as="geometry" />
        </mxCell>
        <mxCell id="je1X-gYXeFDkLmiAkzNs-16" value="&lt;b style=&quot;forced-color-adjust: none; color: rgb(0, 0, 0); font-family: Helvetica; font-size: 12px; font-style: normal; font-variant-ligatures: normal; font-variant-caps: normal; letter-spacing: normal; orphans: 2; text-align: center; text-indent: 0px; text-transform: none; widows: 2; word-spacing: 0px; -webkit-text-stroke-width: 0px; white-space: normal; background-color: rgb(251, 251, 251); text-decoration-thickness: initial; text-decoration-style: initial; text-decoration-color: initial;&quot;&gt;&lt;font style=&quot;forced-color-adjust: none; font-size: 14px;&quot;&gt;Enemy Ships&lt;/font&gt;&lt;/b&gt;&lt;div&gt;&lt;br/&gt;&lt;/div&gt;" style="rounded=0;whiteSpace=wrap;html=1;verticalAlign=top;" vertex="1" parent="1">
          <mxGeometry x="700" y="480" width="370" height="190" as="geometry" />
        </mxCell>
        <mxCell id="je1X-gYXeFDkLmiAkzNs-21" value="Data Interface" style="rounded=0;whiteSpace=wrap;html=1;fontStyle=1" vertex="1" parent="1">
          <mxGeometry x="380" y="420" width="105" height="60" as="geometry" />
        </mxCell>
        <mxCell id="je1X-gYXeFDkLmiAkzNs-6" value="&lt;b&gt;&lt;font style=&quot;font-size: 13px;&quot;&gt;Bridge&lt;/font&gt;&lt;/b&gt;&lt;div&gt;&lt;b&gt;&lt;font style=&quot;font-size: 13px;&quot;&gt;(across devices)&lt;/font&gt;&lt;/b&gt;&lt;/div&gt;" style="rounded=0;whiteSpace=wrap;html=1;verticalAlign=top;dashed=1;dashPattern=8 8;" vertex="1" parent="1">
          <mxGeometry x="80" y="100" width="150" height="670" as="geometry" />
        </mxCell>
        <mxCell id="je1X-gYXeFDkLmiAkzNs-7" value="Tactical Bridge Station" style="rounded=0;whiteSpace=wrap;html=1;" vertex="1" parent="1">
          <mxGeometry x="102.5" y="305" width="105" height="60" as="geometry" />
        </mxCell>
        <mxCell id="je1X-gYXeFDkLmiAkzNs-8" value="Conn Bridge Station" style="rounded=0;whiteSpace=wrap;html=1;" vertex="1" parent="1">
          <mxGeometry x="102.5" y="387" width="105" height="60" as="geometry" />
        </mxCell>
        <mxCell id="je1X-gYXeFDkLmiAkzNs-26" value="Viewscreen&lt;div&gt;Bridge Station&lt;/div&gt;" style="rounded=0;whiteSpace=wrap;html=1;" vertex="1" parent="1">
          <mxGeometry x="102.5" y="470" width="105" height="60" as="geometry" />
        </mxCell>
        <mxCell id="je1X-gYXeFDkLmiAkzNs-27" value="Location" style="rounded=0;whiteSpace=wrap;html=1;" vertex="1" parent="1">
          <mxGeometry x="560" y="210" width="100" height="60" as="geometry" />
        </mxCell>
        <mxCell id="je1X-gYXeFDkLmiAkzNs-28" value="Nearby bodies (e.g. planets)" style="rounded=0;whiteSpace=wrap;html=1;" vertex="1" parent="1">
          <mxGeometry x="560" y="280" width="100" height="60" as="geometry" />
        </mxCell>
        <mxCell id="je1X-gYXeFDkLmiAkzNs-29" value="etc" style="rounded=0;whiteSpace=wrap;html=1;" vertex="1" parent="1">
          <mxGeometry x="102.5" y="550" width="105" height="60" as="geometry" />
        </mxCell>
        <mxCell id="je1X-gYXeFDkLmiAkzNs-31" value="" style="endArrow=classic;startArrow=classic;html=1;rounded=0;" edge="1" parent="1" source="je1X-gYXeFDkLmiAkzNs-7" target="je1X-gYXeFDkLmiAkzNs-21">
          <mxGeometry width="50" height="50" relative="1" as="geometry">
            <mxPoint x="-140" y="390" as="sourcePoint" />
            <mxPoint x="-90" y="340" as="targetPoint" />
          </mxGeometry>
        </mxCell>
        <mxCell id="je1X-gYXeFDkLmiAkzNs-32" value="" style="endArrow=classic;startArrow=classic;html=1;rounded=0;" edge="1" parent="1" source="je1X-gYXeFDkLmiAkzNs-8" target="je1X-gYXeFDkLmiAkzNs-21">
          <mxGeometry width="50" height="50" relative="1" as="geometry">
            <mxPoint x="-140" y="390" as="sourcePoint" />
            <mxPoint x="-90" y="340" as="targetPoint" />
          </mxGeometry>
        </mxCell>
        <mxCell id="je1X-gYXeFDkLmiAkzNs-33" value="" style="endArrow=classic;startArrow=classic;html=1;rounded=0;" edge="1" parent="1" source="je1X-gYXeFDkLmiAkzNs-26" target="je1X-gYXeFDkLmiAkzNs-21">
          <mxGeometry width="50" height="50" relative="1" as="geometry">
            <mxPoint x="-140" y="390" as="sourcePoint" />
            <mxPoint x="-90" y="340" as="targetPoint" />
          </mxGeometry>
        </mxCell>
        <mxCell id="je1X-gYXeFDkLmiAkzNs-34" value="" style="endArrow=classic;startArrow=classic;html=1;rounded=0;" edge="1" parent="1" source="je1X-gYXeFDkLmiAkzNs-29" target="je1X-gYXeFDkLmiAkzNs-21">
          <mxGeometry width="50" height="50" relative="1" as="geometry">
            <mxPoint x="-140" y="390" as="sourcePoint" />
            <mxPoint x="-90" y="340" as="targetPoint" />
          </mxGeometry>
        </mxCell>
        <mxCell id="je1X-gYXeFDkLmiAkzNs-35" value="" style="endArrow=classic;startArrow=classic;html=1;rounded=0;exitX=0.001;exitY=0.507;exitDx=0;exitDy=0;exitPerimeter=0;" edge="1" parent="1" source="je1X-gYXeFDkLmiAkzNs-3" target="je1X-gYXeFDkLmiAkzNs-21">
          <mxGeometry width="50" height="50" relative="1" as="geometry">
            <mxPoint x="-140" y="390" as="sourcePoint" />
            <mxPoint x="-90" y="340" as="targetPoint" />
          </mxGeometry>
        </mxCell>
        <mxCell id="je1X-gYXeFDkLmiAkzNs-36" value="Tactical" style="rounded=0;whiteSpace=wrap;html=1;" vertex="1" parent="1">
          <mxGeometry x="720" y="545" width="100" height="60" as="geometry" />
        </mxCell>
        <mxCell id="je1X-gYXeFDkLmiAkzNs-37" value="etc" style="rounded=0;whiteSpace=wrap;html=1;" vertex="1" parent="1">
          <mxGeometry x="835" y="545" width="100" height="60" as="geometry" />
        </mxCell>
      </root>
    </mxGraphModel>
  </diagram>
</mxfile>
